<svg width="1200" height="630" xmlns="http://www.w3.org/2000/svg">
  <defs>
    <linearGradient id="bg" x1="0%" y1="0%" x2="100%" y2="100%">
      <stop offset="0%" style="stop-color:#0F1B3D;stop-opacity:1" />
      <stop offset="100%" style="stop-color:#1a2d5a;stop-opacity:1" />
    </linearGradient>
    <linearGradient id="gold" x1="0%" y1="0%" x2="100%" y2="0%">
      <stop offset="0%" style="stop-color:#D4A843;stop-opacity:1" />
      <stop offset="100%" style="stop-color:#E8C56D;stop-opacity:1" />
    </linearGradient>
  </defs>
  <!-- Background -->
  <rect width="1200" height="630" fill="url(#bg)" />
  <!-- Subtle accent line -->
  <rect x="100" y="280" width="120" height="4" rx="2" fill="url(#gold)" />
  <!-- Graduation cap icon (simplified) -->
  <g transform="translate(540, 180)" fill="none" stroke="#D4A843" stroke-width="3" stroke-linecap="round" stroke-linejoin="round">
    <path d="M-40 10 L0 -15 L40 10 L0 35 Z" fill="#D4A843" opacity="0.2" stroke="#D4A843"/>
    <path d="M-40 10 L0 -15 L40 10 L0 35 Z"/>
    <line x1="40" y1="10" x2="40" y2="30"/>
    <path d="M-20 22 L-20 40 C-20 48 20 48 20 40 L20 22"/>
  </g>
  <!-- Title -->
  <text x="600" y="310" font-family="Georgia, 'Times New Roman', serif" font-size="56" font-weight="bold" fill="white" text-anchor="middle">AI College Matcher</text>
  <!-- Tagline -->
  <text x="600" y="370" font-family="Arial, Helvetica, sans-serif" font-size="24" fill="rgba(255,255,255,0.7)" text-anchor="middle">Find Your Perfect College Match</text>
  <!-- Sub-tagline -->
  <text x="600" y="420" font-family="Arial, Helvetica, sans-serif" font-size="18" fill="rgba(255,255,255,0.45)" text-anchor="middle">Powered by real data from 2,000+ schools</text>
  <!-- Bottom accent -->
  <rect x="0" y="610" width="1200" height="20" fill="url(#gold)" opacity="0.6" />
  <!-- Corner accents -->
  <rect x="60" y="60" width="40" height="3" rx="1.5" fill="#D4A843" opacity="0.4" />
  <rect x="60" y="60" width="3" height="40" rx="1.5" fill="#D4A843" opacity="0.4" />
  <rect x="1100" y="60" width="40" height="3" rx="1.5" fill="#D4A843" opacity="0.4" />
  <rect x="1137" y="60" width="3" height="40" rx="1.5" fill="#D4A843" opacity="0.4" />
</svg>
